<mxfile host="app.diagrams.net" modified="2023-08-10T09:48:40.164Z" agent="5.0 (Windows NT 10.0; Win64; x64) AppleWebKit/537.36 (KHTML, like Gecko) Chrome/115.0.0.0 Safari/537.36" etag="8SoAas-2q-hmX_pjkTme" version="20.8.5" type="github">
  <diagram id="X1pqfdLoyEXi40aKj6Dz" name="第 1 页">
    <mxGraphModel dx="1434" dy="782" grid="0" gridSize="10" guides="1" tooltips="1" connect="1" arrows="1" fold="1" page="1" pageScale="1" pageWidth="827" pageHeight="1169" math="0" shadow="0">
      <root>
        <mxCell id="0" />
        <mxCell id="1" parent="0" />
        <mxCell id="lJw6rxqIaNfd_lT4gOlx-46" value="" style="rounded=0;whiteSpace=wrap;html=1;fontSize=14;fillColor=#ffcc99;strokeColor=#36393d;glass=0;" parent="1" vertex="1">
          <mxGeometry x="131" y="77" width="529" height="496" as="geometry" />
        </mxCell>
        <mxCell id="lJw6rxqIaNfd_lT4gOlx-23" value="&lt;font style=&quot;font-size: 14px;&quot;&gt;服&lt;br&gt;务&lt;br&gt;层&lt;/font&gt;" style="rounded=0;whiteSpace=wrap;html=1;fillColor=#dae8fc;strokeColor=#6c8ebf;" parent="1" vertex="1">
          <mxGeometry x="28" y="76" width="78" height="497" as="geometry" />
        </mxCell>
        <mxCell id="lJw6rxqIaNfd_lT4gOlx-24" value="" style="rounded=0;whiteSpace=wrap;html=1;fillColor=#d5e8d4;strokeColor=#82b366;gradientColor=#97d077;" parent="1" vertex="1">
          <mxGeometry x="153" y="92.5" width="488" height="318.5" as="geometry" />
        </mxCell>
        <mxCell id="lJw6rxqIaNfd_lT4gOlx-25" value="&lt;b style=&quot;font-size: 15px;&quot;&gt;环&lt;br&gt;境&lt;br&gt;卫&lt;br&gt;士&lt;br&gt;服&lt;br&gt;务&lt;br&gt;端&lt;br&gt;程&lt;br&gt;序&lt;br&gt;&lt;/b&gt;" style="text;html=1;strokeColor=none;fillColor=none;align=center;verticalAlign=middle;whiteSpace=wrap;rounded=0;" parent="1" vertex="1">
          <mxGeometry x="161" y="167.75" width="60" height="168.25" as="geometry" />
        </mxCell>
        <mxCell id="lJw6rxqIaNfd_lT4gOlx-26" value="" style="rounded=1;whiteSpace=wrap;html=1;fontSize=14;fillColor=#f0a30a;fontColor=#000000;strokeColor=#BD7000;" parent="1" vertex="1">
          <mxGeometry x="511" y="105" width="119" height="235" as="geometry" />
        </mxCell>
        <mxCell id="lJw6rxqIaNfd_lT4gOlx-28" value="系统管理" style="text;html=1;strokeColor=none;fillColor=none;align=center;verticalAlign=middle;whiteSpace=wrap;rounded=0;fontSize=14;fontStyle=1" parent="1" vertex="1">
          <mxGeometry x="518" y="116" width="110" height="30" as="geometry" />
        </mxCell>
        <mxCell id="lJw6rxqIaNfd_lT4gOlx-29" value="人员管理" style="rounded=0;whiteSpace=wrap;html=1;fontSize=14;" parent="1" vertex="1">
          <mxGeometry x="527" y="147" width="86" height="32" as="geometry" />
        </mxCell>
        <mxCell id="lJw6rxqIaNfd_lT4gOlx-30" value="部门管理" style="rounded=0;whiteSpace=wrap;html=1;fontSize=14;" parent="1" vertex="1">
          <mxGeometry x="527" y="185" width="86" height="32" as="geometry" />
        </mxCell>
        <mxCell id="lJw6rxqIaNfd_lT4gOlx-31" value="菜单管理" style="rounded=0;whiteSpace=wrap;html=1;fontSize=14;" parent="1" vertex="1">
          <mxGeometry x="527" y="224" width="86" height="32" as="geometry" />
        </mxCell>
        <mxCell id="lJw6rxqIaNfd_lT4gOlx-32" value="权限管理" style="rounded=0;whiteSpace=wrap;html=1;fontSize=14;" parent="1" vertex="1">
          <mxGeometry x="527.5" y="263" width="86" height="32" as="geometry" />
        </mxCell>
        <mxCell id="lJw6rxqIaNfd_lT4gOlx-36" value="角色管理" style="rounded=0;whiteSpace=wrap;html=1;fontSize=14;" parent="1" vertex="1">
          <mxGeometry x="527.5" y="302" width="86" height="32" as="geometry" />
        </mxCell>
        <mxCell id="lJw6rxqIaNfd_lT4gOlx-37" value="" style="rounded=1;whiteSpace=wrap;html=1;fontSize=14;fillColor=#f0a30a;fontColor=#000000;strokeColor=#BD7000;" parent="1" vertex="1">
          <mxGeometry x="383" y="105" width="114" height="235" as="geometry" />
        </mxCell>
        <mxCell id="lJw6rxqIaNfd_lT4gOlx-38" value="环境卫士" style="text;html=1;strokeColor=none;fillColor=none;align=center;verticalAlign=middle;whiteSpace=wrap;rounded=0;fontSize=14;fontStyle=1" parent="1" vertex="1">
          <mxGeometry x="387" y="117" width="110" height="30" as="geometry" />
        </mxCell>
        <mxCell id="lJw6rxqIaNfd_lT4gOlx-39" value="磷化氢实时检测" style="rounded=0;whiteSpace=wrap;html=1;fontSize=14;" parent="1" vertex="1">
          <mxGeometry x="390" y="159" width="102" height="32" as="geometry" />
        </mxCell>
        <mxCell id="lJw6rxqIaNfd_lT4gOlx-43" value="" style="rounded=1;whiteSpace=wrap;html=1;fontSize=14;fillColor=#ffff88;strokeColor=#36393d;" parent="1" vertex="1">
          <mxGeometry x="253" y="349" width="344" height="53" as="geometry" />
        </mxCell>
        <mxCell id="lJw6rxqIaNfd_lT4gOlx-45" value="内部接口（和叉车称重客户端程序的通讯接口）" style="text;html=1;strokeColor=none;fillColor=none;align=center;verticalAlign=middle;whiteSpace=wrap;rounded=0;fontSize=14;fontStyle=1" parent="1" vertex="1">
          <mxGeometry x="270" y="360.5" width="305" height="30" as="geometry" />
        </mxCell>
        <mxCell id="lJw6rxqIaNfd_lT4gOlx-47" value="" style="rounded=0;whiteSpace=wrap;html=1;fillColor=#d5e8d4;strokeColor=#82b366;gradientColor=#97d077;" parent="1" vertex="1">
          <mxGeometry x="153" y="415" width="488" height="60" as="geometry" />
        </mxCell>
        <mxCell id="lJw6rxqIaNfd_lT4gOlx-48" value="&lt;b style=&quot;font-size: 15px;&quot;&gt;中&lt;br&gt;间&lt;br&gt;件&lt;br&gt;&lt;/b&gt;" style="text;html=1;strokeColor=none;fillColor=none;align=center;verticalAlign=middle;whiteSpace=wrap;rounded=0;" parent="1" vertex="1">
          <mxGeometry x="167" y="418" width="48" height="56" as="geometry" />
        </mxCell>
        <mxCell id="lJw6rxqIaNfd_lT4gOlx-49" value="Mysql" style="rounded=1;whiteSpace=wrap;html=1;glass=0;sketch=0;fontSize=14;" parent="1" vertex="1">
          <mxGeometry x="227" y="427.5" width="58" height="35" as="geometry" />
        </mxCell>
        <mxCell id="lJw6rxqIaNfd_lT4gOlx-51" value="VUE" style="rounded=1;whiteSpace=wrap;html=1;glass=0;sketch=0;fontSize=14;" parent="1" vertex="1">
          <mxGeometry x="302" y="427.5" width="60" height="35" as="geometry" />
        </mxCell>
        <mxCell id="lJw6rxqIaNfd_lT4gOlx-52" value="Redis" style="rounded=1;whiteSpace=wrap;html=1;glass=0;sketch=0;fontSize=14;" parent="1" vertex="1">
          <mxGeometry x="379" y="428.5" width="59" height="35" as="geometry" />
        </mxCell>
        <mxCell id="lJw6rxqIaNfd_lT4gOlx-53" value="SpringBoot" style="rounded=1;whiteSpace=wrap;html=1;glass=0;sketch=0;fontSize=14;" parent="1" vertex="1">
          <mxGeometry x="451" y="428.5" width="81" height="35" as="geometry" />
        </mxCell>
        <mxCell id="lJw6rxqIaNfd_lT4gOlx-54" value="MyBatis" style="rounded=1;whiteSpace=wrap;html=1;glass=0;sketch=0;fontSize=14;" parent="1" vertex="1">
          <mxGeometry x="545" y="427.5" width="81" height="35" as="geometry" />
        </mxCell>
        <mxCell id="lJw6rxqIaNfd_lT4gOlx-55" value="" style="rounded=0;whiteSpace=wrap;html=1;fillColor=#d5e8d4;strokeColor=#82b366;gradientColor=#97d077;" parent="1" vertex="1">
          <mxGeometry x="153" y="481" width="488" height="77" as="geometry" />
        </mxCell>
        <mxCell id="lJw6rxqIaNfd_lT4gOlx-56" value="&lt;b style=&quot;font-size: 15px;&quot;&gt;硬&lt;br&gt;件&lt;br&gt;&lt;/b&gt;" style="text;html=1;strokeColor=none;fillColor=none;align=center;verticalAlign=middle;whiteSpace=wrap;rounded=0;" parent="1" vertex="1">
          <mxGeometry x="167" y="491.5" width="48" height="56" as="geometry" />
        </mxCell>
        <mxCell id="lJw6rxqIaNfd_lT4gOlx-60" value="服务器" style="rounded=1;whiteSpace=wrap;html=1;glass=0;sketch=0;fontSize=14;" parent="1" vertex="1">
          <mxGeometry x="519" y="500.25" width="99" height="38.5" as="geometry" />
        </mxCell>
        <mxCell id="lJw6rxqIaNfd_lT4gOlx-107" value="&lt;span style=&quot;font-size: 14px;&quot;&gt;访&lt;br&gt;问&lt;br&gt;层&lt;/span&gt;" style="rounded=0;whiteSpace=wrap;html=1;fillColor=#dae8fc;strokeColor=#6c8ebf;" parent="1" vertex="1">
          <mxGeometry x="28" y="8" width="78" height="59" as="geometry" />
        </mxCell>
        <mxCell id="lJw6rxqIaNfd_lT4gOlx-108" value="" style="rounded=0;whiteSpace=wrap;html=1;glass=0;sketch=0;fontSize=14;fillColor=#b0e3e6;strokeColor=#0e8088;" parent="1" vertex="1">
          <mxGeometry x="131" y="7" width="528" height="60" as="geometry" />
        </mxCell>
        <mxCell id="lJw6rxqIaNfd_lT4gOlx-109" value="" style="fontColor=#0066CC;verticalAlign=top;verticalLabelPosition=bottom;labelPosition=center;align=center;html=1;outlineConnect=0;fillColor=#CCCCCC;strokeColor=#6881B3;gradientColor=none;gradientDirection=north;strokeWidth=2;shape=mxgraph.networks.monitor;rounded=0;glass=0;sketch=0;fontSize=14;" parent="1" vertex="1">
          <mxGeometry x="347" y="12" width="33" height="30" as="geometry" />
        </mxCell>
        <mxCell id="lJw6rxqIaNfd_lT4gOlx-111" value="PC" style="text;html=1;strokeColor=none;fillColor=none;align=center;verticalAlign=middle;whiteSpace=wrap;rounded=0;glass=0;sketch=0;fontSize=14;" parent="1" vertex="1">
          <mxGeometry x="333.5" y="44" width="60" height="19" as="geometry" />
        </mxCell>
        <mxCell id="k8Ibx7LnlquFCrMsMRpq-1" value="摄像头实时布防" style="rounded=0;whiteSpace=wrap;html=1;fontSize=14;" vertex="1" parent="1">
          <mxGeometry x="390" y="204" width="102" height="32" as="geometry" />
        </mxCell>
        <mxCell id="k8Ibx7LnlquFCrMsMRpq-2" value="摄像头" style="rounded=1;whiteSpace=wrap;html=1;glass=0;sketch=0;fontSize=14;" vertex="1" parent="1">
          <mxGeometry x="227" y="500" width="99" height="38.5" as="geometry" />
        </mxCell>
        <mxCell id="k8Ibx7LnlquFCrMsMRpq-3" value="磷化氢传感器" style="rounded=1;whiteSpace=wrap;html=1;glass=0;sketch=0;fontSize=14;" vertex="1" parent="1">
          <mxGeometry x="368" y="500.25" width="99" height="38.5" as="geometry" />
        </mxCell>
        <mxCell id="k8Ibx7LnlquFCrMsMRpq-4" value="" style="rounded=1;whiteSpace=wrap;html=1;fontSize=14;fillColor=#f0a30a;fontColor=#000000;strokeColor=#BD7000;" vertex="1" parent="1">
          <mxGeometry x="251" y="105" width="114" height="235" as="geometry" />
        </mxCell>
        <mxCell id="k8Ibx7LnlquFCrMsMRpq-5" value="首页" style="text;html=1;strokeColor=none;fillColor=none;align=center;verticalAlign=middle;whiteSpace=wrap;rounded=0;fontSize=14;fontStyle=1" vertex="1" parent="1">
          <mxGeometry x="253" y="116" width="110" height="30" as="geometry" />
        </mxCell>
        <mxCell id="k8Ibx7LnlquFCrMsMRpq-7" value="天气预报" style="rounded=0;whiteSpace=wrap;html=1;fontSize=14;" vertex="1" parent="1">
          <mxGeometry x="265" y="155" width="86" height="32" as="geometry" />
        </mxCell>
        <mxCell id="k8Ibx7LnlquFCrMsMRpq-8" value="车辆监控" style="rounded=0;whiteSpace=wrap;html=1;fontSize=14;" vertex="1" parent="1">
          <mxGeometry x="265.5" y="206.5" width="86" height="32" as="geometry" />
        </mxCell>
        <mxCell id="k8Ibx7LnlquFCrMsMRpq-9" value="地图服务(上海交大提供)" style="rounded=0;whiteSpace=wrap;html=1;fontSize=14;" vertex="1" parent="1">
          <mxGeometry x="265.5" y="258" width="86" height="66" as="geometry" />
        </mxCell>
      </root>
    </mxGraphModel>
  </diagram>
</mxfile>
